<svg xmlns="http://www.w3.org/2000/svg" width="213" height="54" fill="none" viewBox="0 0 213 54">
    <path fill="#fff" d="M13.499 37.176c3.272 0 4.909-1.947 4.909-5.842v-9.772c0-3.895-1.637-5.842-4.91-5.842-3.272 0-4.908 1.947-4.908 5.842v9.772c0 3.895 1.636 5.842 4.909 5.842zm0 3.824c-2.028 0-3.877-.319-5.55-.956-1.635-.673-3.058-1.629-4.267-2.868C2.508 35.937 1.6 34.414.96 32.61c-.64-1.806-.96-3.86-.96-6.16 0-2.302.32-4.356.96-6.161.64-1.806 1.548-3.329 2.722-4.568 1.209-1.239 2.632-2.177 4.268-2.815 1.672-.672 3.521-1.009 5.549-1.009 2.027 0 3.86.337 5.495 1.01 1.672.637 3.095 1.575 4.269 2.814 1.21 1.24 2.134 2.762 2.774 4.568.64 1.805.96 3.859.96 6.16 0 2.302-.32 4.355-.96 6.16-.64 1.806-1.565 3.329-2.774 4.568-1.174 1.24-2.597 2.195-4.269 2.868-1.636.637-3.468.956-5.495.956zM39.952 41c-3.023 0-5.229-.69-6.616-2.071-1.351-1.416-2.027-3.382-2.027-5.895 0-5.488 4.073-8.232 12.218-8.232h3.735v-3.027c0-2.16-.41-3.789-1.227-4.886-.818-1.098-2.241-1.647-4.269-1.647-.747 0-1.387.053-1.92.16-.534.106-.996.247-1.388.424v.266c.356.177.694.496 1.014.956.356.46.534 1.08.534 1.859 0 1.062-.338 1.965-1.014 2.708-.676.708-1.69 1.063-3.041 1.063-1.068 0-1.957-.372-2.668-1.116-.712-.743-1.067-1.682-1.067-2.815 0-.85.249-1.681.747-2.496.498-.85 1.245-1.593 2.24-2.23.997-.638 2.224-1.151 3.682-1.54 1.494-.39 3.202-.585 5.122-.585 3.877 0 6.74.832 8.59 2.496 1.85 1.63 2.775 3.948 2.775 6.958v15.508h3.201v3.027c-.605.354-1.387.62-2.347.796-.96.213-1.957.319-2.988.319-1.957 0-3.344-.443-4.162-1.328-.783-.92-1.174-2.053-1.174-3.399v-.106h-.32c-.249.602-.57 1.186-.96 1.753-.356.566-.836 1.08-1.44 1.54-.57.46-1.282.832-2.135 1.115-.854.283-1.885.425-3.095.425zm3.041-4.78c1.317 0 2.348-.3 3.095-.903.783-.602 1.174-1.646 1.174-3.133v-4.196H44.38c-1.708 0-2.988.354-3.842 1.063-.818.708-1.227 1.717-1.227 3.027v.85c0 1.132.338 1.965 1.014 2.496.676.53 1.565.796 2.667.796zM61.47 36.858h3.201V6l-3.201-.69V2.284L72.78 0v26.342h.32l3.148-3.718 6.35-6.585h-3.202v-3.505H91.51v3.505H87.72l-6.136 6.001 9.017 14.818h2.4v3.505H78.97v-3.505h2.401l-5.175-9.879-3.415 3.559v6.32h2.935v3.505H61.47v-3.505zM93.86 12.48h7.31l2.721 13.437.907 7.648h.747l1.12-7.648 3.202-13.436h7.256l3.361 13.436 1.121 7.648h.64l.907-7.648 2.935-13.436h6.829l-6.829 27.882h-8.164l-3.148-13.596-1.013-7.488h-.747l-1.014 7.488-3.148 13.596h-8.163L93.86 12.48zM154.639 40.363c-2.916 0-4.499-1.611-4.748-4.833h-.694c-.284 1.7-1.049 3.045-2.294 4.036-1.245.956-2.828 1.434-4.749 1.434-2.525 0-4.428-.708-5.709-2.124-1.28-1.452-1.921-3.452-1.921-6.002 0-3.045.925-5.257 2.775-6.638 1.885-1.381 4.5-2.072 7.843-2.072h4.055v-2.177c0-1.452-.302-2.531-.907-3.24-.605-.708-1.618-1.062-3.041-1.062-1.245 0-2.294.319-3.148.956-.818.602-1.547 1.416-2.188 2.443l-4.428-3.93c1.138-1.664 2.525-2.956 4.162-3.877 1.636-.956 3.734-1.434 6.295-1.434 3.664 0 6.368.85 8.11 2.55 1.743 1.699 2.615 4.23 2.615 7.594v12.587h2.294v5.789h-4.322zm-9.497-4.568c1.103 0 2.045-.3 2.828-.903.818-.637 1.227-1.61 1.227-2.92v-3.453h-3.361c-2.561 0-3.842 1.063-3.842 3.187v1.009c0 1.062.267 1.841.8 2.337.57.495 1.352.743 2.348.743zM168.08 40.363l-8.057-27.882h7.577l3.895 15.189 1.12 6.426h.854l1.12-6.426 3.895-15.19h7.256l-8.056 27.883h-9.604zM199.849 41c-3.842 0-6.919-1.204-9.231-3.611-2.276-2.443-3.414-6.09-3.414-10.94 0-4.958.996-8.622 2.987-10.994 2.028-2.408 4.998-3.612 8.911-3.612 3.912 0 6.865 1.204 8.857 3.612C209.986 17.827 211 21.49 211 26.448v1.806h-16.007v1.752c0 1.558.481 2.815 1.441 3.771.96.92 2.277 1.381 3.948 1.381 1.388 0 2.561-.3 3.522-.903.996-.637 1.903-1.505 2.721-2.602l3.788 4.408c-1.138 1.522-2.597 2.726-4.375 3.611-1.743.885-3.806 1.328-6.189 1.328zm-.747-23.58c-2.739 0-4.109 1.593-4.109 4.78v1.699h8.217v-1.7c0-3.186-1.369-4.78-4.108-4.78z"/>
    <path fill="url(#paint0_linear)" fill-rule="evenodd" d="M173.156 52.751c1.233.166 2.632.249 4.197.249 1.945 0 3.676-.157 5.193-.47 1.49-.298 2.614-.67 3.373-1.119.34-.078.664-.147.972-.207.712-.129 1.542-.193 2.49-.193 1.139 0 2.277.101 3.415.304 1.091.203 2.253.433 3.486.69 1.375.314 2.68.553 3.913.719 1.185.184 2.561.276 4.126.276 1.944 0 3.699-.166 5.264-.497 1.518-.332 2.656-.737 3.415-1.216l-3.201-2.127c-.949.258-1.779.451-2.49.58-.759.148-1.613.221-2.561.221-1.139 0-2.253-.101-3.344-.303-1.138-.203-2.324-.433-3.557-.691-1.375-.313-2.656-.553-3.842-.718-1.233-.166-2.632-.249-4.197-.249-1.944 0-3.675.157-5.193.47-1.49.298-2.614.67-3.373 1.119-.34.078-.664.147-.972.207-.712.129-1.542.193-2.49.193-1.138 0-2.277-.101-3.415-.304-1.091-.203-2.253-.433-3.486-.69-1.375-.314-2.679-.553-3.913-.719-1.185-.184-2.561-.276-4.126-.276-1.944 0-3.699.166-5.264.497-1.261.276-2.26.602-2.998.98-.924.25-1.734.437-2.43.563-.759.148-1.613.221-2.561.221-1.139 0-2.253-.101-3.344-.303-1.138-.203-2.324-.433-3.557-.691-1.376-.313-2.656-.553-3.842-.718-1.233-.166-2.632-.249-4.197-.249-1.945 0-3.676.157-5.193.47-1.49.298-2.614.67-3.373 1.119-.34.078-.664.147-.972.207-.712.129-1.542.193-2.49.193-1.139 0-2.277-.101-3.415-.304-1.091-.203-2.253-.433-3.486-.69-1.375-.314-2.68-.553-3.913-.719-1.185-.184-2.561-.276-4.126-.276-1.944 0-3.699.166-5.264.497-1.518.332-2.656.737-3.415 1.216l3.201 2.127c.949-.258 1.779-.451 2.49-.58.759-.148 1.613-.221 2.561-.221 1.139 0 2.253.101 3.344.303 1.138.203 2.324.433 3.557.691 1.375.313 2.656.553 3.842.718 1.233.166 2.632.249 4.197.249 1.944 0 3.675-.156 5.193-.47 1.49-.298 2.614-.67 3.373-1.119.34-.078.664-.147.972-.207.712-.128 1.542-.193 2.49-.193 1.138 0 2.277.101 3.415.304 1.091.203 2.253.433 3.486.69 1.375.314 2.679.553 3.913.719 1.185.184 2.561.276 4.126.276 1.944 0 3.699-.166 5.264-.497 1.261-.276 2.26-.602 2.998-.98.924-.25 1.734-.437 2.43-.563.759-.148 1.613-.221 2.561-.221 1.139 0 2.253.101 3.344.303 1.138.203 2.324.433 3.557.691 1.376.313 2.656.553 3.842.718zM1 49v3h94v-3H1z" clip-rule="evenodd"/>
    <defs>
        <linearGradient id="paint0_linear" x1="1" x2="223.6" y1="48" y2="48" gradientUnits="userSpaceOnUse">
            <stop stop-color="#603EFF"/>
            <stop offset=".448" stop-color="#3551EA"/>
            <stop offset="1" stop-color="#039CEF"/>
        </linearGradient>
    </defs>
</svg>
