<svg xmlns="http://www.w3.org/2000/svg" width="114" height="6" fill="none" viewBox="0 0 114 6">
    <path fill="url(#paint0_linear)" fill-rule="evenodd" d="M78.353 5c-1.565 0-2.964-.083-4.197-.249-1.186-.165-2.467-.405-3.842-.718-1.233-.258-2.419-.488-3.557-.69-1.09-.203-2.205-.304-3.344-.304-.948 0-1.802.073-2.56.22-.697.127-1.508.315-2.431.565-.738.377-1.737.703-2.998.979-1.565.331-3.32.497-5.264.497-1.565 0-2.94-.092-4.127-.276-1.233-.166-2.537-.405-3.912-.718-1.233-.258-2.395-.489-3.486-.691-1.138-.203-2.277-.304-3.415-.304-.948 0-1.778.065-2.49.193-.308.06-.632.13-.972.207-.759.448-1.883.821-3.373 1.12-1.518.312-3.249.469-5.193.469-1.565 0-2.964-.083-4.197-.249-1.186-.165-2.467-.405-3.842-.718-1.233-.258-2.419-.488-3.557-.69-1.09-.203-2.205-.304-3.344-.304-.948 0-1.802.073-2.56.22-.712.13-1.542.323-2.49.58L0 2.014c.759-.48 1.897-.884 3.415-1.216C4.98.466 6.735.3 8.679.3c1.565 0 2.94.092 4.126.276 1.233.166 2.538.405 3.913.718 1.233.258 2.395.489 3.486.691 1.138.203 2.276.304 3.415.304.948 0 1.778-.065 2.49-.193.308-.06.632-.13.972-.207.759-.448 1.883-.821 3.373-1.12C31.97.458 33.702.3 35.647.3c1.565 0 2.964.083 4.197.249 1.186.165 2.466.405 3.842.718 1.233.258 2.419.488 3.557.69 1.09.203 2.205.304 3.343.304.95 0 1.803-.073 2.562-.22.696-.127 1.506-.315 2.43-.565.738-.377 1.737-.703 2.998-.979C60.14.166 61.896 0 63.84 0c1.565 0 2.94.092 4.126.276 1.234.166 2.538.405 3.913.718 1.233.258 2.395.488 3.486.691 1.138.203 2.277.304 3.415.304.948 0 1.778-.065 2.49-.193.308-.06.632-.13.972-.207.76-.448 1.883-.821 3.373-1.12C87.133.158 88.864 0 90.808 0c1.565 0 2.964.083 4.197.249 1.186.165 2.467.405 3.842.718 1.233.258 2.419.488 3.557.69 1.091.203 2.205.304 3.344.304.948 0 1.802-.073 2.561-.22.711-.13 1.541-.323 2.49-.58L114 3.286c-.759.48-1.897.884-3.415 1.216-1.565.331-3.32.497-5.264.497-1.565 0-2.941-.092-4.126-.276-1.233-.166-2.538-.405-3.913-.718-1.233-.258-2.395-.489-3.486-.691-1.138-.203-2.276-.304-3.415-.304-.948 0-1.778.065-2.49.193-.308.06-.632.13-.972.207-.759.448-1.883.821-3.373 1.12-1.517.312-3.248.469-5.193.469z" clip-rule="evenodd"/>
    <defs>
        <linearGradient id="paint0_linear" x1="0" x2="119.7" y1="0" y2="0" gradientUnits="userSpaceOnUse">
            <stop stop-color="#603EFF"/>
            <stop offset=".448" stop-color="#3551EA"/>
            <stop offset="1" stop-color="#039CEF"/>
        </linearGradient>
    </defs>
</svg>
